<svg width="40" height="52" viewBox="0 0 40 52" fill="none" xmlns="http://www.w3.org/2000/svg">
<path fill-rule="evenodd" clip-rule="evenodd" d="M37.9526 46.7299V5.26902C37.9526 3.57285 36.5775 2.19784 34.8814 2.19784H12.5462L2.04745 12.6966V46.7299C2.04745 48.426 3.42246 49.8011 5.11863 49.8011H34.8814C36.5775 49.8011 37.9526 48.426 37.9526 46.7299ZM0 11.8485L11.6981 0.150391H34.8814C37.7083 0.150391 40 2.44208 40 5.26902V46.7299C40 49.5568 37.7083 51.8485 34.8814 51.8485H5.11863C2.29169 51.8485 0 49.5568 0 46.7299V11.8485Z" fill="#F4F7FA"/>
<path fill-rule="evenodd" clip-rule="evenodd" d="M11.0538 7.48338V1.28125H13.1013V7.48338C13.1013 10.8757 10.3512 13.6257 6.95892 13.6257H1.28125V11.5783H6.95892C9.22047 11.5783 11.0538 9.74493 11.0538 7.48338Z" fill="#F4F7FA"/>
<path fill-rule="evenodd" clip-rule="evenodd" d="M19.9622 20.6249C21.4875 20.6249 22.5215 19.485 22.5215 18.3215C22.5215 17.1581 21.4875 16.0182 19.9622 16.0182C18.4369 16.0182 17.4029 17.1581 17.4029 18.3215C17.4029 19.485 18.4369 20.6249 19.9622 20.6249ZM19.9622 22.6724C22.5065 22.6724 24.569 20.7244 24.569 18.3215C24.569 15.9186 22.5065 13.9707 19.9622 13.9707C17.418 13.9707 15.3555 15.9186 15.3555 18.3215C15.3555 20.7244 17.418 22.6724 19.9622 22.6724Z" fill="#F4F7FA"/>
<path fill-rule="evenodd" clip-rule="evenodd" d="M15.061 26.9462C13.8355 27.6814 13.3092 28.5545 13.3092 29.3258H11.2617C11.2617 27.5528 12.4541 26.1226 14.0076 25.1905C15.5814 24.2462 17.6895 23.6953 19.9634 23.6953C22.2372 23.6953 24.3454 24.2462 25.9192 25.1905C27.4727 26.1226 28.665 27.5528 28.665 29.3258H26.6176C26.6176 28.5545 26.0912 27.6814 24.8658 26.9462C23.6608 26.2231 21.9299 25.7428 19.9634 25.7428C17.9968 25.7428 16.266 26.2231 15.061 26.9462Z" fill="#F4F7FA"/>
<path fill-rule="evenodd" clip-rule="evenodd" d="M34.8071 35.4693H5.375V33.4219H34.8071V35.4693Z" fill="#F4F7FA"/>
<path fill-rule="evenodd" clip-rule="evenodd" d="M24.5698 39.5631H5.375V37.5156H24.5698V39.5631Z" fill="#F4F7FA"/>
<path fill-rule="evenodd" clip-rule="evenodd" d="M14.3326 43.6588H5.375V41.6113H14.3326V43.6588Z" fill="#F4F7FA"/>
</svg>
