<svg width="60" height="58" viewBox="0 0 60 58" fill="none" xmlns="http://www.w3.org/2000/svg">
<path fill-rule="evenodd" clip-rule="evenodd" d="M51.8477 21.3271L34.4216 38.7532L36.2442 40.5758L53.6703 23.1497L51.8477 21.3271ZM52.654 18.908C52.2087 18.4626 51.4866 18.4626 51.0413 18.908L32.0025 37.9468C31.5571 38.3921 31.5571 39.1142 32.0025 39.5595L34.6315 42.1885C35.5222 43.0792 36.9663 43.0792 37.857 42.1885L55.283 24.7625C56.1738 23.8718 56.1738 22.4277 55.283 21.5369L52.654 18.908Z" fill="#F4F7FA"/>
<path fill-rule="evenodd" clip-rule="evenodd" d="M35.7718 5.25129L33.9492 3.42869L16.5232 20.8547L18.3458 22.6773L35.7718 5.25129ZM35.562 1.81591C34.6713 0.925192 33.2272 0.925194 32.3364 1.81591L14.9104 19.2419C14.0197 20.1326 14.0197 21.5768 14.9104 22.4675L17.5394 25.0965C17.9848 25.5418 18.7068 25.5418 19.1522 25.0965L38.191 6.05768C38.6364 5.61232 38.6364 4.89026 38.191 4.4449L35.562 1.81591Z" fill="#F4F7FA"/>
<path fill-rule="evenodd" clip-rule="evenodd" d="M34.5469 6.47852L50.6223 22.554L35.6515 37.5248L19.576 21.4493L34.5469 6.47852ZM34.5469 9.70408L22.8016 21.4493L35.6515 34.2992L47.3968 22.554L34.5469 9.70408Z" fill="#F4F7FA"/>
<path fill-rule="evenodd" clip-rule="evenodd" d="M28.8987 31.0422L26.6172 28.7607L3.22515 52.1528L5.50668 54.4343L28.8987 31.0422ZM26.6172 25.5352L1.61237 50.54C0.721654 51.4307 0.721654 52.8748 1.61237 53.7655L3.89389 56.0471C4.78461 56.9378 6.22874 56.9378 7.11946 56.0471L32.1243 31.0422L26.6172 25.5352Z" fill="#F4F7FA"/>
<path d="M17.2082 30.3543C17.8418 29.7207 18.8691 29.7207 19.5028 30.3543L27.3045 38.1561C27.9381 38.7897 27.9381 39.817 27.3045 40.4507V40.4507C26.6708 41.0843 25.6435 41.0843 25.0099 40.4507L17.2082 32.649C16.5745 32.0153 16.5745 30.988 17.2082 30.3543V30.3543Z" fill="#F4F7FA"/>
<path fill-rule="evenodd" clip-rule="evenodd" d="M29.6539 57.744C29.76 57.7766 29.8727 57.7942 29.9895 57.7942H58.8615C59.4913 57.7942 60.0019 57.2836 60.0019 56.6538V56.3385C60.0019 55.7087 59.4913 55.1981 58.8615 55.1981H55.3011C54.6713 55.1981 54.1607 54.6875 54.1607 54.0577V52.4451C54.1607 51.8153 53.6502 51.3047 53.0203 51.3047H29.9895C29.3597 51.3047 28.8491 51.8153 28.8491 52.4451V56.6538C28.8491 57.1668 29.1879 57.6007 29.6539 57.744ZM26.7456 57.744C27.2117 57.6007 27.5505 57.1668 27.5505 56.6538V56.3385C27.5505 55.7624 27.1232 55.286 26.5683 55.209C26.5166 55.2018 26.4638 55.1981 26.4101 55.1981H20.2537C19.6239 55.1981 19.1133 55.7087 19.1133 56.3385V56.6538C19.1133 57.2836 19.6239 57.7942 20.2537 57.7942H26.4101C26.5269 57.7942 26.6396 57.7766 26.7456 57.744ZM31.1299 53.5855V55.5134H52.2041C51.9962 55.0717 51.8799 54.5783 51.8799 54.0577V53.5855H31.1299Z" fill="#F4F7FA"/>
</svg>
