<svg width="60" height="52" viewBox="0 0 60 52" fill="none" xmlns="http://www.w3.org/2000/svg">
<path fill-rule="evenodd" clip-rule="evenodd" d="M47.9526 46.7299V5.26902C47.9526 3.57285 46.5775 2.19784 44.8814 2.19784H22.5462L12.0475 12.6966V46.7299C12.0475 48.426 13.4225 49.8011 15.1186 49.8011H44.8814C46.5775 49.8011 47.9526 48.426 47.9526 46.7299ZM10 11.8485L21.6981 0.150391H44.8814C47.7083 0.150391 50 2.44208 50 5.26902V46.7299C50 49.5568 47.7083 51.8485 44.8814 51.8485H15.1186C12.2917 51.8485 10 49.5568 10 46.7299V11.8485Z" fill="#F4F7FA"/>
<path fill-rule="evenodd" clip-rule="evenodd" d="M21.0538 7.48338V1.28125H23.1013V7.48338C23.1013 10.8757 20.3512 13.6257 16.9589 13.6257H11.2812V11.5783H16.9589C19.2205 11.5783 21.0538 9.74493 21.0538 7.48338Z" fill="#F4F7FA"/>
<path d="M24.024 24.464C24.024 22.304 22.344 20.64 20.04 20.64H16.264V32H18.584V28.288H20.04C22.344 28.288 24.024 26.624 24.024 24.464ZM21.768 24.464C21.768 25.408 21.08 26.112 20.008 26.112H18.584V22.816H20.008C21.08 22.816 21.768 23.52 21.768 24.464ZM25.7171 32H29.4611C32.7251 32 35.3011 29.488 35.3011 26.32C35.3011 23.152 32.7251 20.64 29.4611 20.64H25.7171V32ZM28.0371 29.872V22.768H29.4611C31.5571 22.768 32.9651 24.352 32.9651 26.32C32.9651 28.288 31.5571 29.872 29.4611 29.872H28.0371ZM37.1703 32H39.4903V27.408H43.0903V25.2H39.4903V22.848H44.0823V20.64H37.1703V32Z" fill="white"/>
</svg>
