<svg width="50" height="48" viewBox="0 0 50 48" fill="none" xmlns="http://www.w3.org/2000/svg">
<path fill-rule="evenodd" clip-rule="evenodd" d="M5.74126 11.265C4.99727 5.28207 9.66318 0 15.6922 0H43.7354C47.1953 0 50 2.80475 50 6.26457V10.2095H43.0217V8.38633H48.1768V6.26457C48.1768 3.81167 46.1883 1.82319 43.7354 1.82319C41.3044 1.82319 39.3296 3.77634 39.2945 6.19903L44.647 41.5256V41.5942C44.647 45.0541 41.8423 47.8588 38.3824 47.8588C37.9547 47.8588 37.537 47.8159 37.1334 47.7343V47.8588H6.26457C2.80475 47.8588 0 45.0541 0 41.5942V37.8277H33.9411V41.5942C33.9411 44.0471 35.9295 46.0356 38.3824 46.0356C40.8135 46.0356 42.7883 44.0825 42.8234 41.6598L37.4708 6.33324V6.26457C37.4708 4.52872 38.1769 2.95777 39.3174 1.82319H15.6922C10.7594 1.82319 6.9418 6.14488 7.55052 11.04L10.5594 35.2366L8.75016 35.4616L5.74126 11.265ZM33.9644 46.0356C32.8239 44.901 32.1179 43.3301 32.1179 41.5942V39.6509H1.82319V41.5942C1.82319 44.0471 3.81167 46.0356 6.26457 46.0356H33.9644Z" fill="#F4F7FA"/>
<path fill-rule="evenodd" clip-rule="evenodd" d="M23.752 26.3839C26.884 26.3839 29.423 23.8449 29.423 20.7129C29.423 17.5809 26.884 15.0419 23.752 15.0419C20.62 15.0419 18.081 17.5809 18.081 20.7129C18.081 23.8449 20.62 26.3839 23.752 26.3839ZM23.752 28.2071C27.8909 28.2071 31.2462 24.8518 31.2462 20.7129C31.2462 16.574 27.8909 13.2188 23.752 13.2188C19.6131 13.2188 16.2578 16.574 16.2578 20.7129C16.2578 24.8518 19.6131 28.2071 23.752 28.2071Z" fill="#F4F7FA"/>
<path fill-rule="evenodd" clip-rule="evenodd" d="M27.7832 19.3947L22.8562 24.3216L19.5352 21.0006L20.8243 19.7114L22.8562 21.7433L26.494 18.1055L27.7832 19.3947Z" fill="#F4F7FA"/>
</svg>
