<svg width="312" height="80" viewBox="0 0 312 80" fill="none" xmlns="http://www.w3.org/2000/svg">
<path fill-rule="evenodd" clip-rule="evenodd" d="M46.1298 3.83177L0 30.4648L46.1298 57.0979L92.2597 30.4648L80.2785 23.5475L46.1311 43.2626L23.9648 30.4648L58.1123 10.7498L46.1298 3.83177Z" fill="#4DA19F"/>
<path fill-rule="evenodd" clip-rule="evenodd" d="M11.982 42.9157L0 49.8335L46.1298 76.4666L92.2597 49.8335L80.2777 42.9157L46.1298 62.6309L11.982 42.9157Z" fill="#4DA19F"/>
<path d="M132.849 33.567V32.793L134.035 22.6903L127.776 32.6301H116.772V5.6624L120.494 3.42188H108.508L111.658 5.6624V31.245L108.508 33.567H132.849Z" fill="#4DA19F"/>
<path d="M141.995 34.0558C144.941 34.0558 147.763 31.9375 150.177 29.3304V34.0558L157.704 31.1228L155.004 30.3488V18.5352C155.004 14.7874 152.386 12.221 148.5 12.221C145.431 12.221 137.045 15.6021 137.045 19.1462C137.045 20.4498 137.904 21.3867 139.131 21.3867C142.404 21.3867 140.931 15.928 143.263 14.4208C144.081 13.8912 144.859 13.6875 145.8 13.6875C148.336 13.6875 150.177 15.7651 150.177 18.6981V20.6535C144.613 23.0569 137.168 25.7456 137.168 29.7378C137.168 32.2634 139.131 34.0558 141.995 34.0558ZM145.227 31.4487C143.304 31.4487 141.954 30.1451 141.954 28.2305C141.954 25.1753 145.677 23.2199 150.177 21.346V28.3934C148.663 30.1044 147.027 31.4487 145.227 31.4487Z" fill="#4DA19F"/>
<path d="M159.134 33.567H169.32L166.579 31.7746V16.4576C168.298 15.4799 170.179 14.543 171.734 14.543C173.698 14.543 175.252 16.2947 175.252 18.5759V31.7746L172.47 33.567H182.657L180.12 31.7746V18.3315C180.12 14.6652 177.707 12.221 174.311 12.221C172.389 12.221 169.116 14.2578 166.579 15.8873V12.221L158.848 15.6021L161.711 16.7835V31.7746L159.134 33.567Z" fill="#4DA19F"/>
<path d="M192.852 34.0558C195.061 34.0558 198.17 32.0597 200.379 30.634V34.1781L207.948 31.1228L205.288 30.3081V0L197.557 3.38114L200.42 4.56251L200.379 13.769C198.784 12.7913 196.738 12.221 194.652 12.221C188.475 12.221 184.22 16.7428 184.22 23.6273C184.22 29.7785 187.697 34.0558 192.852 34.0558ZM195.634 31.7746C191.911 31.7746 189.375 27.9861 189.375 22.2015C189.375 16.6206 191.666 12.9135 195.184 12.9135C198.007 12.9135 200.134 15.6021 200.379 19.3499V29.9822C198.661 31.0006 196.943 31.7746 195.634 31.7746Z" fill="#4DA19F"/>
<path d="M209.472 33.567H219.658L216.917 31.7746V16.0502C218.431 15.1948 220.108 14.543 221.458 14.543C223.381 14.543 224.936 16.2947 224.936 18.5759V31.7746L222.154 33.567H232.463L229.763 31.7746V18.3315C229.763 17.5575 229.681 16.865 229.476 16.2132C231.113 15.2762 232.831 14.543 234.263 14.543C236.227 14.543 237.781 16.2947 237.781 18.5759V31.7746L235.04 33.567H245.186L242.649 31.7746V18.3315C242.649 14.6652 240.154 12.221 236.881 12.221C234.958 12.221 231.808 14.0949 229.313 15.7243C228.413 13.5653 226.408 12.221 223.995 12.221C222.235 12.221 219.372 13.8505 216.917 15.4392V12.221L209.185 15.6021L212.049 16.7835V31.7746L209.472 33.567Z" fill="#4DA19F"/>
<path d="M251.979 34.0558C254.925 34.0558 257.747 31.9375 260.161 29.3304V34.0558L267.688 31.1228L264.988 30.3488V18.5352C264.988 14.7874 262.37 12.221 258.484 12.221C255.416 12.221 247.029 15.6021 247.029 19.1462C247.029 20.4498 247.888 21.3867 249.116 21.3867C252.388 21.3867 250.916 15.928 253.247 14.4208C254.066 13.8912 254.843 13.6875 255.784 13.6875C258.32 13.6875 260.161 15.7651 260.161 18.6981V20.6535C254.597 23.0569 247.152 25.7456 247.152 29.7378C247.152 32.2634 249.116 34.0558 251.979 34.0558ZM255.211 31.4487C253.288 31.4487 251.938 30.1451 251.938 28.2305C251.938 25.1753 255.661 23.2199 260.161 21.346V28.3934C258.647 30.1044 257.011 31.4487 255.211 31.4487Z" fill="#4DA19F"/>
<path d="M269.118 33.567H279.591L276.564 31.7746V17.2316C277.382 16.091 278.527 14.8281 279.714 14.8281C281.309 14.8281 281.514 17.6797 283.927 17.6797C285.236 17.6797 286.177 16.6613 286.177 15.154C286.177 13.4431 284.786 12.221 282.741 12.221C280.327 12.221 278.077 14.1764 276.564 16.2132V12.221L268.832 15.6021L271.695 16.7428V31.7746L269.118 33.567Z" fill="#4DA19F"/>
<path d="M286.771 33.567H296.753L294.217 31.7746V22.283L305.058 33.567H311.726L298.962 20.6127L310.213 12.7913H304.772L296.344 21.8756H294.217V0L286.485 3.38114L289.308 4.52177V31.7746L286.771 33.567Z" fill="#4DA19F"/>
<path d="M125.403 70.5491C129.044 70.5898 133.135 69.7751 135.549 68.553V67.8605L136.899 59.1428C133.749 66.231 130.108 69.6936 125.403 69.6529C118.858 69.6529 114.644 63.6646 114.644 54.7433C114.644 46.1071 118.858 40.1596 125.281 40.1596C129.985 40.1188 133.544 43.4592 136.449 49.8141L135.344 41.952V41.2594C132.931 40.0781 128.881 39.2633 125.281 39.2633C116.362 39.2633 109.081 46.2293 109.081 54.7433C109.081 63.4609 116.485 70.5491 125.403 70.5491Z" fill="#4DA19F"/>
<path d="M144.911 70.5491C147.857 70.5491 150.68 68.4308 153.093 65.8236V70.5491L160.621 67.6161L157.921 66.8421V55.0284C157.921 51.2807 155.302 48.7143 151.416 48.7143C148.348 48.7143 139.961 52.0954 139.961 55.6395C139.961 56.9431 140.821 57.88 142.048 57.88C145.321 57.88 143.848 52.4213 146.18 50.914C146.998 50.3845 147.775 50.1808 148.716 50.1808C151.252 50.1808 153.093 52.2583 153.093 55.1914V57.1467C147.53 59.5502 140.084 62.2388 140.084 66.231C140.084 68.7567 142.048 70.5491 144.911 70.5491ZM148.143 67.9419C146.221 67.9419 144.871 66.6384 144.871 64.7238C144.871 61.6685 148.593 59.7131 153.093 57.8393V64.8867C151.58 66.5976 149.943 67.9419 148.143 67.9419Z" fill="#4DA19F"/>
<path d="M161.362 80H171.548L168.766 78.2076V69.2048C170.321 70.0603 172.203 70.5491 174.084 70.5491C180.712 70.5491 184.966 65.7829 184.966 59.0206C184.966 52.9101 181.366 48.7143 176.13 48.7143C174.043 48.7143 170.975 50.7511 168.766 52.2176V48.7143L161.034 52.0954L163.898 53.2768V78.2076L161.362 80ZM174.166 69.8973C171.507 69.8973 169.175 67.7383 168.766 64.1942V52.8694C170.566 51.7695 172.162 51.0362 173.389 51.0362C176.989 51.0362 179.771 54.9062 179.771 60.4464C179.771 65.9866 177.439 69.8973 174.166 69.8973Z" fill="#4DA19F"/>
<path d="M194.667 44.8443V39.2633H189.144V44.8443H194.667ZM187.139 70.0603H197.203L194.585 68.2678V48.7143L186.853 52.0954L189.717 53.236V68.2678L187.139 70.0603Z" fill="#4DA19F"/>
<path d="M207.15 70.5491C210.096 70.5491 213.123 68.4715 214.719 65.5792C213.655 67.0458 211.732 68.0234 210.014 68.0234C207.764 68.0234 206.291 66.7199 206.291 64.8052V51.4029H213.205V49.6919H206.291V43.3777L201.341 45.6183V48.4291L198.069 51.077L201.914 52.462L201.341 65.0904C201.219 68.5123 203.55 70.5491 207.15 70.5491Z" fill="#4DA19F"/>
<path d="M220.139 70.5491C223.084 70.5491 225.907 68.4308 228.32 65.8236V70.5491L235.848 67.6161L233.148 66.8421V55.0284C233.148 51.2807 230.53 48.7143 226.643 48.7143C223.575 48.7143 215.189 52.0954 215.189 55.6395C215.189 56.9431 216.048 57.88 217.275 57.88C220.548 57.88 219.075 52.4213 221.407 50.914C222.225 50.3845 223.002 50.1808 223.943 50.1808C226.48 50.1808 228.32 52.2583 228.32 55.1914V57.1467C222.757 59.5502 215.311 62.2388 215.311 66.231C215.311 68.7567 217.275 70.5491 220.139 70.5491ZM223.37 67.9419C221.448 67.9419 220.098 66.6384 220.098 64.7238C220.098 61.6685 223.82 59.7131 228.32 57.8393V64.8867C226.807 66.5976 225.17 67.9419 223.37 67.9419Z" fill="#4DA19F"/>
<path d="M237.073 70.0603H247.055L244.518 68.2678V36.4933L236.786 39.8744L239.609 41.015V68.2678L237.073 70.0603Z" fill="#4DA19F"/>
</svg>
